<svg width="20" height="20" viewBox="0 0 20 20" fill="none" xmlns="http://www.w3.org/2000/svg">
<path fill-rule="evenodd" clip-rule="evenodd" d="M0.707106 17.2635C0.316583 17.654 0.316583 18.2871 0.707106 18.6777C1.09763 19.0682 1.7308 19.0682 2.12132 18.6777L9.5 11.299L17.2635 19.0624C17.654 19.453 18.2871 19.453 18.6777 19.0624C19.0682 18.6719 19.0682 18.0388 18.6777 17.6482L10.9142 9.88478L19.0919 1.70711C19.4824 1.31658 19.4824 0.683418 19.0919 0.292893C18.7014 -0.0976311 18.0682 -0.0976311 17.6777 0.292894L9.5 8.47056L1.70711 0.677669C1.31658 0.287145 0.683417 0.287145 0.292893 0.677669C-0.0976316 1.06819 -0.0976306 1.70136 0.292893 2.09188L8.08579 9.88478L0.707106 17.2635Z" fill="#222222"/>
</svg>
